<mxfile host="app.diagrams.net" modified="2024-04-02T11:22:55.159Z" agent="Mozilla/5.0 (Windows NT 10.0; Win64; x64) AppleWebKit/537.36 (KHTML, like Gecko) Chrome/123.0.0.0 Safari/537.36" etag="CPqeoAbzWBcYG_jVcOld" version="24.2.1" type="device">
  <diagram name="페이지-1" id="_Pte0aiEgO_7aKyXO-_I">
    <mxGraphModel dx="1834" dy="1106" grid="0" gridSize="10" guides="1" tooltips="1" connect="1" arrows="1" fold="1" page="0" pageScale="1" pageWidth="827" pageHeight="1169" math="0" shadow="0">
      <root>
        <mxCell id="0" />
        <mxCell id="1" parent="0" />
        <mxCell id="iyOYZgaLN7W4t4bW-bR_-2" value="" style="rounded=0;whiteSpace=wrap;html=1;" parent="1" vertex="1">
          <mxGeometry x="-178" y="-206" width="736" height="483" as="geometry" />
        </mxCell>
        <mxCell id="lyfPrdq1iEbFtlCeKumN-19" value="" style="rounded=0;whiteSpace=wrap;html=1;fillColor=#fff2cc;strokeColor=#d6b656;" parent="1" vertex="1">
          <mxGeometry x="-111" y="-120" width="166" height="381" as="geometry" />
        </mxCell>
        <mxCell id="lyfPrdq1iEbFtlCeKumN-15" value="" style="rounded=0;whiteSpace=wrap;html=1;fillColor=#d0cee2;strokeColor=#56517e;" parent="1" vertex="1">
          <mxGeometry x="389" y="-149" width="154" height="310" as="geometry" />
        </mxCell>
        <mxCell id="lyfPrdq1iEbFtlCeKumN-13" value="" style="rounded=0;whiteSpace=wrap;html=1;fillColor=#dae8fc;strokeColor=#6c8ebf;" parent="1" vertex="1">
          <mxGeometry x="72" y="-172" width="301" height="218" as="geometry" />
        </mxCell>
        <mxCell id="zxIQUl1xdKcMc-ANKgj4-15" style="edgeStyle=none;curved=1;rounded=0;orthogonalLoop=1;jettySize=auto;html=1;exitX=0.5;exitY=1;exitDx=0;exitDy=0;entryX=0.5;entryY=0;entryDx=0;entryDy=0;fontSize=12;startSize=8;endSize=8;" parent="1" source="zxIQUl1xdKcMc-ANKgj4-1" target="zxIQUl1xdKcMc-ANKgj4-2" edge="1">
          <mxGeometry relative="1" as="geometry">
            <Array as="points">
              <mxPoint x="-28" y="-28" />
            </Array>
          </mxGeometry>
        </mxCell>
        <mxCell id="zxIQUl1xdKcMc-ANKgj4-1" value="&lt;font style=&quot;font-size: 16px;&quot;&gt;&lt;b&gt;USER&lt;/b&gt;&lt;/font&gt;" style="rounded=0;whiteSpace=wrap;html=1;" parent="1" vertex="1">
          <mxGeometry x="-88" y="-107" width="120" height="60" as="geometry" />
        </mxCell>
        <mxCell id="zxIQUl1xdKcMc-ANKgj4-2" value="&lt;font style=&quot;font-size: 16px;&quot;&gt;&lt;b&gt;LLM&lt;/b&gt;&lt;/font&gt;" style="rounded=0;whiteSpace=wrap;html=1;fillColor=#00CC99;strokeColor=#82b366;" parent="1" vertex="1">
          <mxGeometry x="-88" y="-10" width="120" height="60" as="geometry" />
        </mxCell>
        <mxCell id="zxIQUl1xdKcMc-ANKgj4-4" value="&lt;font style=&quot;font-size: 16px;&quot;&gt;&lt;b&gt;USER&lt;/b&gt;&lt;/font&gt;" style="rounded=0;whiteSpace=wrap;html=1;" parent="1" vertex="1">
          <mxGeometry x="-88" y="185" width="120" height="60" as="geometry" />
        </mxCell>
        <mxCell id="zxIQUl1xdKcMc-ANKgj4-17" style="edgeStyle=none;curved=0;rounded=0;orthogonalLoop=1;jettySize=auto;html=1;exitX=0;exitY=0;exitDx=0;exitDy=79.5;exitPerimeter=0;fontSize=12;startSize=8;endSize=8;" parent="1" edge="1">
          <mxGeometry relative="1" as="geometry">
            <Array as="points">
              <mxPoint x="-28" y="135" />
            </Array>
            <mxPoint x="161" y="134.5" as="sourcePoint" />
            <mxPoint x="-28" y="183" as="targetPoint" />
          </mxGeometry>
        </mxCell>
        <mxCell id="zxIQUl1xdKcMc-ANKgj4-5" value="&lt;font style=&quot;font-size: 16px;&quot;&gt;&lt;b&gt;Vector&amp;nbsp;&lt;/b&gt;&lt;/font&gt;&lt;div style=&quot;font-size: 16px;&quot;&gt;&lt;font style=&quot;font-size: 16px;&quot;&gt;&lt;b&gt;DB&lt;/b&gt;&lt;/font&gt;&lt;/div&gt;" style="shape=cylinder3;whiteSpace=wrap;html=1;boundedLbl=1;backgroundOutline=1;size=15;fillColor=#f8cecc;strokeColor=#b85450;" parent="1" vertex="1">
          <mxGeometry x="161" y="53" width="85" height="116" as="geometry" />
        </mxCell>
        <mxCell id="zxIQUl1xdKcMc-ANKgj4-8" value="&lt;font style=&quot;font-size: 16px;&quot;&gt;&lt;b&gt;DART&lt;/b&gt;&lt;/font&gt;" style="rounded=0;whiteSpace=wrap;html=1;" parent="1" vertex="1">
          <mxGeometry x="84" y="-157" width="120" height="60" as="geometry" />
        </mxCell>
        <mxCell id="zxIQUl1xdKcMc-ANKgj4-9" value="&lt;font style=&quot;font-size: 16px;&quot;&gt;&lt;b&gt;LLM&lt;/b&gt;&lt;/font&gt;" style="rounded=0;whiteSpace=wrap;html=1;fillColor=#00cc99;strokeColor=#82b366;" parent="1" vertex="1">
          <mxGeometry x="143.5" y="-34" width="120" height="60" as="geometry" />
        </mxCell>
        <mxCell id="zxIQUl1xdKcMc-ANKgj4-10" value="&lt;font style=&quot;font-size: 16px;&quot;&gt;&lt;b&gt;EDGAR&lt;/b&gt;&lt;/font&gt;" style="rounded=0;whiteSpace=wrap;html=1;" parent="1" vertex="1">
          <mxGeometry x="243" y="-157" width="120" height="60" as="geometry" />
        </mxCell>
        <mxCell id="zxIQUl1xdKcMc-ANKgj4-11" value="" style="endArrow=classic;html=1;rounded=0;fontSize=12;startSize=8;endSize=8;curved=0;exitX=0.45;exitY=1.008;exitDx=0;exitDy=0;exitPerimeter=0;entryX=0.5;entryY=0;entryDx=0;entryDy=0;" parent="1" source="zxIQUl1xdKcMc-ANKgj4-8" target="zxIQUl1xdKcMc-ANKgj4-9" edge="1">
          <mxGeometry width="50" height="50" relative="1" as="geometry">
            <mxPoint x="142" y="227" as="sourcePoint" />
            <mxPoint x="192" y="177" as="targetPoint" />
            <Array as="points">
              <mxPoint x="138" y="-58" />
              <mxPoint x="204" y="-58" />
            </Array>
          </mxGeometry>
        </mxCell>
        <mxCell id="zxIQUl1xdKcMc-ANKgj4-13" value="" style="endArrow=none;html=1;rounded=0;fontSize=12;startSize=8;endSize=8;curved=0;exitX=0.5;exitY=1;exitDx=0;exitDy=0;entryX=0.405;entryY=0.998;entryDx=0;entryDy=0;entryPerimeter=0;" parent="1" source="zxIQUl1xdKcMc-ANKgj4-10" target="zxIQUl1xdKcMc-ANKgj4-14" edge="1">
          <mxGeometry width="50" height="50" relative="1" as="geometry">
            <mxPoint x="142" y="227" as="sourcePoint" />
            <mxPoint x="205" y="-63" as="targetPoint" />
            <Array as="points">
              <mxPoint x="303" y="-58" />
            </Array>
          </mxGeometry>
        </mxCell>
        <mxCell id="zxIQUl1xdKcMc-ANKgj4-14" value="&lt;font style=&quot;font-size: 12px;&quot;&gt;Report Data&lt;/font&gt;" style="text;html=1;align=center;verticalAlign=middle;resizable=0;points=[];autosize=1;strokeColor=none;fillColor=none;fontSize=16;" parent="1" vertex="1">
          <mxGeometry x="170.5" y="-89" width="83" height="31" as="geometry" />
        </mxCell>
        <mxCell id="zxIQUl1xdKcMc-ANKgj4-16" style="edgeStyle=none;curved=0;rounded=0;orthogonalLoop=1;jettySize=auto;html=1;exitX=0.5;exitY=1;exitDx=0;exitDy=0;entryX=0;entryY=0;entryDx=0;entryDy=36.5;entryPerimeter=0;fontSize=12;startSize=8;endSize=8;" parent="1" source="zxIQUl1xdKcMc-ANKgj4-2" target="zxIQUl1xdKcMc-ANKgj4-5" edge="1">
          <mxGeometry relative="1" as="geometry">
            <Array as="points">
              <mxPoint x="-28" y="90" />
            </Array>
          </mxGeometry>
        </mxCell>
        <mxCell id="zxIQUl1xdKcMc-ANKgj4-19" style="edgeStyle=none;curved=1;rounded=0;orthogonalLoop=1;jettySize=auto;html=1;exitX=0.5;exitY=1;exitDx=0;exitDy=0;entryX=0.5;entryY=0;entryDx=0;entryDy=0;entryPerimeter=0;fontSize=12;startSize=8;endSize=8;" parent="1" source="zxIQUl1xdKcMc-ANKgj4-9" target="zxIQUl1xdKcMc-ANKgj4-5" edge="1">
          <mxGeometry relative="1" as="geometry" />
        </mxCell>
        <mxCell id="zxIQUl1xdKcMc-ANKgj4-20" value="&lt;font style=&quot;font-size: 14px;&quot;&gt;Input&lt;/font&gt;" style="text;html=1;align=center;verticalAlign=middle;resizable=0;points=[];autosize=1;strokeColor=none;fillColor=none;fontSize=16;" parent="1" vertex="1">
          <mxGeometry x="-33" y="-47" width="49" height="31" as="geometry" />
        </mxCell>
        <mxCell id="zxIQUl1xdKcMc-ANKgj4-28" value="&lt;font style=&quot;font-size: 14px;&quot;&gt;Jailbreaking&lt;/font&gt;" style="text;html=1;align=center;verticalAlign=middle;resizable=0;points=[];autosize=1;strokeColor=none;fillColor=none;fontSize=16;" parent="1" vertex="1">
          <mxGeometry x="-185" y="-51" width="93" height="31" as="geometry" />
        </mxCell>
        <mxCell id="zxIQUl1xdKcMc-ANKgj4-29" value="" style="endArrow=classic;html=1;rounded=0;fontSize=12;startSize=8;endSize=8;curved=1;exitX=0.538;exitY=0.903;exitDx=0;exitDy=0;exitPerimeter=0;entryX=0;entryY=0.5;entryDx=0;entryDy=0;" parent="1" source="zxIQUl1xdKcMc-ANKgj4-28" target="zxIQUl1xdKcMc-ANKgj4-2" edge="1">
          <mxGeometry width="50" height="50" relative="1" as="geometry">
            <mxPoint x="71" y="-25" as="sourcePoint" />
            <mxPoint x="38" y="6" as="targetPoint" />
          </mxGeometry>
        </mxCell>
        <mxCell id="zxIQUl1xdKcMc-ANKgj4-30" value="" style="endArrow=classic;html=1;rounded=0;fontSize=12;startSize=8;endSize=8;curved=1;" parent="1" edge="1">
          <mxGeometry width="50" height="50" relative="1" as="geometry">
            <mxPoint x="318" y="-14" as="sourcePoint" />
            <mxPoint x="273" y="-6" as="targetPoint" />
          </mxGeometry>
        </mxCell>
        <mxCell id="zxIQUl1xdKcMc-ANKgj4-31" value="&lt;font style=&quot;font-size: 14px;&quot;&gt;Summary&lt;/font&gt;" style="text;html=1;align=center;verticalAlign=middle;resizable=0;points=[];autosize=1;strokeColor=none;fillColor=none;fontSize=16;" parent="1" vertex="1">
          <mxGeometry x="293" y="-43" width="78" height="31" as="geometry" />
        </mxCell>
        <mxCell id="zxIQUl1xdKcMc-ANKgj4-32" value="&lt;font style=&quot;font-size: 14px;&quot;&gt;Insert&lt;/font&gt;" style="text;html=1;align=center;verticalAlign=middle;resizable=0;points=[];autosize=1;strokeColor=none;fillColor=none;fontSize=16;" parent="1" vertex="1">
          <mxGeometry x="200.5" y="22" width="53" height="31" as="geometry" />
        </mxCell>
        <mxCell id="zxIQUl1xdKcMc-ANKgj4-33" value="&lt;font style=&quot;font-size: 14px;&quot;&gt;Query&lt;/font&gt;" style="text;html=1;align=center;verticalAlign=middle;resizable=0;points=[];autosize=1;strokeColor=none;fillColor=none;fontSize=16;" parent="1" vertex="1">
          <mxGeometry x="87.5" y="64" width="56" height="31" as="geometry" />
        </mxCell>
        <mxCell id="zxIQUl1xdKcMc-ANKgj4-34" value="&lt;font style=&quot;font-size: 14px;&quot;&gt;Extract&lt;/font&gt;" style="text;html=1;align=center;verticalAlign=middle;resizable=0;points=[];autosize=1;strokeColor=none;fillColor=none;fontSize=16;" parent="1" vertex="1">
          <mxGeometry x="-33" y="56" width="62" height="31" as="geometry" />
        </mxCell>
        <mxCell id="lyfPrdq1iEbFtlCeKumN-6" style="edgeStyle=orthogonalEdgeStyle;rounded=0;orthogonalLoop=1;jettySize=auto;html=1;exitX=0.5;exitY=1;exitDx=0;exitDy=0;entryX=0.5;entryY=0;entryDx=0;entryDy=0;" parent="1" source="lyfPrdq1iEbFtlCeKumN-4" target="lyfPrdq1iEbFtlCeKumN-5" edge="1">
          <mxGeometry relative="1" as="geometry" />
        </mxCell>
        <mxCell id="lyfPrdq1iEbFtlCeKumN-4" value="&lt;font style=&quot;font-size: 16px;&quot;&gt;&lt;b&gt;Anticipated Inquiry&lt;/b&gt;&lt;/font&gt;" style="rounded=0;whiteSpace=wrap;html=1;" parent="1" vertex="1">
          <mxGeometry x="413" y="-131" width="120" height="60" as="geometry" />
        </mxCell>
        <mxCell id="lyfPrdq1iEbFtlCeKumN-8" style="edgeStyle=orthogonalEdgeStyle;rounded=0;orthogonalLoop=1;jettySize=auto;html=1;exitX=0.5;exitY=1;exitDx=0;exitDy=0;entryX=0.5;entryY=0;entryDx=0;entryDy=0;" parent="1" source="lyfPrdq1iEbFtlCeKumN-5" target="lyfPrdq1iEbFtlCeKumN-7" edge="1">
          <mxGeometry relative="1" as="geometry">
            <mxPoint x="473" y="80.75003051757812" as="targetPoint" />
          </mxGeometry>
        </mxCell>
        <mxCell id="lyfPrdq1iEbFtlCeKumN-5" value="&lt;font style=&quot;font-size: 16px;&quot;&gt;&lt;b&gt;LLM&lt;/b&gt;&lt;/font&gt;" style="rounded=0;whiteSpace=wrap;html=1;fillColor=#00cc99;strokeColor=#82b366;" parent="1" vertex="1">
          <mxGeometry x="413" y="-25" width="120" height="60" as="geometry" />
        </mxCell>
        <mxCell id="lyfPrdq1iEbFtlCeKumN-7" value="&lt;font style=&quot;font-size: 16px;&quot;&gt;&lt;b&gt;Anticipated&lt;/b&gt;&lt;/font&gt;&lt;div&gt;&lt;font style=&quot;font-size: 16px;&quot;&gt;&lt;b&gt;Response&lt;/b&gt;&lt;/font&gt;&lt;/div&gt;" style="rounded=0;whiteSpace=wrap;html=1;" parent="1" vertex="1">
          <mxGeometry x="413" y="81" width="120" height="60" as="geometry" />
        </mxCell>
        <mxCell id="lyfPrdq1iEbFtlCeKumN-9" style="edgeStyle=orthogonalEdgeStyle;rounded=0;orthogonalLoop=1;jettySize=auto;html=1;exitX=0;exitY=0.5;exitDx=0;exitDy=0;entryX=1;entryY=0.5;entryDx=0;entryDy=0;entryPerimeter=0;" parent="1" source="lyfPrdq1iEbFtlCeKumN-4" target="zxIQUl1xdKcMc-ANKgj4-5" edge="1">
          <mxGeometry relative="1" as="geometry">
            <Array as="points">
              <mxPoint x="413" y="-97" />
              <mxPoint x="401" y="-97" />
              <mxPoint x="401" y="111" />
            </Array>
          </mxGeometry>
        </mxCell>
        <mxCell id="lyfPrdq1iEbFtlCeKumN-10" value="" style="endArrow=none;html=1;rounded=0;entryX=0;entryY=0.5;entryDx=0;entryDy=0;" parent="1" target="lyfPrdq1iEbFtlCeKumN-7" edge="1">
          <mxGeometry width="50" height="50" relative="1" as="geometry">
            <mxPoint x="386" y="111" as="sourcePoint" />
            <mxPoint x="638" y="83" as="targetPoint" />
          </mxGeometry>
        </mxCell>
        <mxCell id="lyfPrdq1iEbFtlCeKumN-12" value="&lt;font style=&quot;font-size: 14px;&quot;&gt;Insert&lt;/font&gt;" style="text;html=1;align=center;verticalAlign=middle;resizable=0;points=[];autosize=1;strokeColor=none;fillColor=none;" parent="1" vertex="1">
          <mxGeometry x="253.5" y="85" width="53" height="29" as="geometry" />
        </mxCell>
        <mxCell id="lyfPrdq1iEbFtlCeKumN-14" value="&lt;b&gt;&lt;font style=&quot;font-size: 18px;&quot;&gt;DATA PIPELINE&lt;/font&gt;&lt;/b&gt;" style="text;html=1;align=center;verticalAlign=middle;resizable=0;points=[];autosize=1;strokeColor=none;fillColor=none;" parent="1" vertex="1">
          <mxGeometry x="146.5" y="-198" width="152" height="34" as="geometry" />
        </mxCell>
        <mxCell id="lyfPrdq1iEbFtlCeKumN-16" value="&lt;font style=&quot;font-size: 18px;&quot;&gt;&lt;b&gt;Anticipated Q&amp;amp;A&lt;/b&gt;&lt;/font&gt;" style="text;html=1;align=center;verticalAlign=middle;resizable=0;points=[];autosize=1;strokeColor=none;fillColor=none;" parent="1" vertex="1">
          <mxGeometry x="385" y="-174" width="161" height="34" as="geometry" />
        </mxCell>
        <mxCell id="lyfPrdq1iEbFtlCeKumN-17" value="&lt;font style=&quot;font-size: 14px;&quot;&gt;RAG&lt;/font&gt;" style="text;html=1;align=center;verticalAlign=middle;resizable=0;points=[];autosize=1;strokeColor=none;fillColor=none;" parent="1" vertex="1">
          <mxGeometry x="108" y="110" width="48" height="29" as="geometry" />
        </mxCell>
        <mxCell id="lyfPrdq1iEbFtlCeKumN-20" value="&lt;b&gt;&lt;font style=&quot;font-size: 18px;&quot;&gt;CHAT-BOT&lt;/font&gt;&lt;/b&gt;" style="text;html=1;align=center;verticalAlign=middle;resizable=0;points=[];autosize=1;strokeColor=none;fillColor=none;" parent="1" vertex="1">
          <mxGeometry x="-83" y="-146" width="110" height="34" as="geometry" />
        </mxCell>
        <mxCell id="iyOYZgaLN7W4t4bW-bR_-1" value="&lt;font style=&quot;font-size: 14px;&quot;&gt;Output&lt;/font&gt;" style="text;html=1;align=center;verticalAlign=middle;resizable=0;points=[];autosize=1;strokeColor=none;fillColor=none;" parent="1" vertex="1">
          <mxGeometry x="-33" y="145" width="60" height="29" as="geometry" />
        </mxCell>
        <mxCell id="iyOYZgaLN7W4t4bW-bR_-3" value="&lt;font style=&quot;font-size: 20px;&quot;&gt;&lt;b&gt;System Architecture&lt;/b&gt;&lt;/font&gt;" style="text;html=1;align=center;verticalAlign=middle;resizable=0;points=[];autosize=1;strokeColor=none;fillColor=none;" parent="1" vertex="1">
          <mxGeometry x="97.5" y="-237" width="212" height="36" as="geometry" />
        </mxCell>
      </root>
    </mxGraphModel>
  </diagram>
</mxfile>
